<svg width="64" height="104" viewBox="0 0 64 104" fill="none" xmlns="http://www.w3.org/2000/svg">
<path d="M63.4731 68.0108C63.2227 67.8465 63.1881 67.6564 63.0672 67.4056C62.9895 67.2414 62.8254 66.9647 62.6958 66.8437C62.5144 66.6795 62.2381 66.8264 62.1603 66.5498C62.0912 66.2904 62.3158 66.1608 62.1258 65.8928C61.9703 65.6766 61.7976 65.4864 61.6594 65.253C61.5471 65.0628 61.4175 64.8726 61.2621 64.7084C61.1066 64.5528 60.8302 64.5268 60.7784 64.2848C60.5193 64.2156 60.4416 64.5095 60.2688 64.6306C60.0961 64.7602 59.7161 64.6565 59.6297 64.8899C59.5692 65.0369 59.6988 65.0282 59.7333 65.1493C59.7765 65.279 59.7074 65.4086 59.6642 65.521C59.5606 65.7544 59.3533 65.9792 59.2669 66.2213C59.1374 66.5671 59.3792 66.74 59.6124 66.9475C59.7333 67.0512 59.7938 67.0166 59.7074 67.1722C59.6297 67.3105 59.4656 67.3105 59.3274 67.3019C59.0251 67.2846 58.7833 67.129 58.4982 67.0944C58.2219 67.0598 57.9109 67.0944 57.6345 67.0944C57.2804 67.0944 57.1422 67.1636 56.8659 67.3624C56.6672 67.5094 56.3908 67.6736 56.1749 67.5094C56.0108 67.3884 55.9503 67.1376 55.769 67.0166C55.5617 66.8696 55.268 66.9129 55.0348 66.9993C54.8103 67.0858 54.5857 67.2327 54.3611 67.2933C54.102 67.3711 53.8084 67.2933 53.532 67.3365C53.4283 67.3538 53.2815 67.4575 53.1865 67.4402C53.1001 67.4316 52.9706 67.3192 52.8756 67.2933C52.6165 67.2241 52.3574 67.3105 52.1155 67.1463C51.9082 66.9993 51.7959 66.861 51.5196 66.8783C51.2518 66.8956 51.0964 67.0166 50.8977 67.1895C50.6818 67.3797 50.6559 67.518 50.5954 67.786C50.5263 68.08 50.4572 68.2874 50.1636 68.3652C49.8872 68.4344 49.6626 68.3739 49.4121 68.2961C49.1617 68.2183 48.9285 68.1837 48.6434 68.1578C48.3843 68.1405 48.1511 68.054 47.918 67.9935C47.6588 67.9243 47.3565 67.9503 47.1061 67.8984C46.8297 67.8465 46.7779 67.8898 46.5533 68.054C46.3719 68.1923 46.1646 68.2615 45.9919 68.3998C45.6032 68.7024 45.7932 69.273 45.7501 69.7225C45.56 69.7744 45.2578 69.6274 45.1368 69.4718C45.0677 69.3854 45.0677 69.2903 44.9814 69.2125C44.9036 69.1347 44.7482 69.1174 44.6532 69.0569C44.4718 68.9445 44.2731 68.7889 44.1177 68.6592C43.9104 68.4863 43.8672 68.2788 43.8067 68.0281C43.7376 67.7514 43.6513 67.4575 43.5476 67.1982C43.5045 67.0858 43.4613 66.982 43.4094 66.8783C43.3576 66.7832 43.2281 66.6535 43.2022 66.5671C43.1071 66.3164 43.3404 66.0138 43.3231 65.7458C43.3058 65.5124 43.2022 65.253 43.0899 65.0455C42.8049 64.5441 42.563 63.939 42.0534 63.6105C41.9239 63.524 41.7771 63.4462 41.6389 63.3684C41.4661 63.2733 41.4229 63.2301 41.2588 63.3165C40.9565 63.4721 40.6888 63.6105 40.3779 63.7142C40.3347 63.4289 40.4815 63.3079 40.2051 63.0917C39.9978 62.9275 39.7387 62.841 39.5055 62.72C39.0564 62.4693 38.97 62.0284 38.8837 61.5702C38.8059 61.1725 39.0823 61.3541 39.2896 61.1466C39.4278 60.9996 39.4883 60.6193 39.5055 60.4204C39.5487 59.8931 39.1169 59.5732 38.78 59.236C38.6764 59.1323 38.5814 59.0545 38.5986 58.8902C38.3568 58.8384 38.0804 58.7433 37.9768 58.4666V58.1554C37.8904 58.0863 37.8818 57.922 37.83 57.8183C37.7522 57.6713 37.6399 57.4897 37.519 57.3687C37.3549 57.2131 37.2254 57.0488 37.0699 56.8846C36.8885 56.6858 36.7676 56.5388 36.6985 56.2881C36.6294 56.0374 36.474 55.8212 36.3789 55.5619C36.2926 55.3198 36.3358 55.0259 36.258 54.7838C36.1803 54.5591 36.0248 54.3948 36.0421 54.1268C36.0507 53.8675 36.1285 53.6168 36.1112 53.3315C36.0939 52.977 35.9471 53.0029 35.6621 52.8733C35.6016 52.8473 35.5584 52.8214 35.4893 52.8041C35.4375 52.2335 35.8348 51.6975 35.1439 51.4468C34.8588 51.3431 34.712 51.2307 34.5738 50.9714C34.4529 50.7466 34.332 50.4872 34.142 50.3143C33.6151 49.8129 33.4424 50.833 33.2437 51.1183C33.0537 51.3863 32.7428 51.5506 32.5355 51.8099C32.3714 52.0174 32.2591 52.2681 32.0432 52.4237C31.7927 52.5966 31.5941 52.4583 31.3263 52.5361C31.0845 52.6139 31.1104 52.8387 31.0154 53.0202C30.9204 53.2018 30.7735 53.3747 30.6354 53.513C30.4194 53.7291 30.2381 53.8934 30.048 53.6081C29.8148 53.2537 29.4089 53.0548 29.0893 52.7436C28.6748 52.3373 28.3379 52.2941 27.7852 52.2422C27.7592 52.1212 27.8456 52.0174 27.8974 51.905C27.9665 51.7581 27.9579 51.6975 27.9579 51.5506C27.9493 51.248 28.0874 51.0751 28.2602 50.8417C28.407 50.6515 28.5452 50.3057 28.4416 50.055C28.3552 49.8302 28.0529 49.7697 27.9838 49.5017C27.8802 49.0867 28.2688 48.1617 28.718 48.0666C28.9857 48.0061 29.2189 48.1271 29.478 47.9283C29.7285 47.7295 29.5385 47.5738 29.4435 47.3491C29.3398 47.1157 29.2275 46.8736 29.2103 46.6229C29.2016 46.4846 29.2448 46.329 29.1843 46.2079C29.1412 46.1215 28.8389 45.7065 28.7784 45.6373C28.3638 45.1705 29.1757 45.0322 28.787 44.3146C28.6575 44.0726 28.3725 44.2282 28.2516 43.9861C28.1134 43.7095 28.312 43.5279 28.5538 43.4761C29.0807 43.3637 29.0202 42.4819 28.7007 42.1447C28.6316 42.0669 28.5366 42.0237 28.4588 41.9545C28.6661 41.8767 28.908 41.92 29.0721 41.773C29.2707 41.5915 29.2448 41.1851 29.3053 40.9431C29.3657 40.7183 29.3571 40.4762 29.4262 40.2601C29.5125 40.0008 29.6162 39.7933 29.6594 39.5253C29.6767 39.4215 29.7285 39.2919 29.6939 39.1795C29.6594 39.0671 29.5557 38.9893 29.5298 38.8683C29.478 38.6521 29.5644 38.3668 29.7717 38.2545C29.8839 38.1853 29.9876 38.2285 30.0653 38.0988C30.143 37.9778 30.0999 37.8222 30.1085 37.6925C30.1258 37.4418 30.2035 37.1998 30.2467 36.9663L30.2812 36.7934C30.3503 36.5254 30.359 36.1191 30.074 35.9635C29.8321 35.8338 29.6162 36.0327 29.383 36.0932C29.1498 36.1623 28.8907 36.2747 28.6489 36.3352C28.3725 36.4044 28.0788 36.3612 27.8111 36.3352C27.526 36.3093 27.2928 36.3525 27.146 36.0673C26.9992 35.7993 27.241 35.5399 27.1115 35.2633C27.0078 35.0471 26.7919 34.8483 26.576 34.9175C26.3341 34.9953 26.1441 35.2373 25.8764 35.2546C25.8246 35.2546 25.79 35.2719 25.7468 35.2892C25.7468 35.2719 25.7382 35.246 25.7382 35.2287C25.6777 35.2287 25.6345 35.1855 25.5741 35.1855C25.4964 34.8829 25.7727 34.6754 25.4618 34.3987C25.3063 34.2604 25.0904 34.1567 24.909 34.0357C24.719 33.9146 24.4254 33.759 24.2872 33.5861C24.1663 33.4219 24.0713 33.1625 24.0022 32.9723C23.9072 32.7043 23.959 32.4017 23.8553 32.1424C23.7776 31.9435 23.5789 31.8052 23.4235 31.6756C23.2248 31.5199 23.0348 31.3903 22.8189 31.2433C22.603 31.0877 22.5857 30.8543 22.4648 30.6468C22.1711 30.1454 21.8947 29.7218 21.4974 29.2809C21.1433 28.8832 20.9101 28.4596 20.5474 28.0792C20.2105 27.7248 20.0119 27.1715 19.5455 27.0072C19.0532 26.8257 18.4313 26.7651 17.9822 26.4539C17.7922 26.3156 17.6022 26.0995 17.5072 25.892C17.3776 25.6067 17.4381 25.4338 17.1185 25.2782C16.868 25.1485 16.6866 25.0621 16.4707 24.8805C16.2807 24.7249 15.9698 24.552 15.892 24.3013C15.7711 23.8863 16.2289 24.0074 16.3843 23.7826C16.5312 23.5578 16.0821 23.359 15.9698 23.2034C15.8229 23.0045 15.5552 22.6847 15.5206 22.434C15.4688 22.1141 15.9525 22.0795 16.1166 21.8029C16.2893 21.5176 16.1166 21.3966 15.9611 21.1372C15.8057 20.8865 15.797 20.679 15.7798 20.3851C15.7538 20.0047 15.5379 20.0133 15.2961 19.7972C15.1838 19.7021 15.1579 19.5897 15.0888 19.486C14.9679 19.2958 14.9074 19.3995 14.752 19.3045C14.3028 19.0451 14.3978 18.3535 14.0178 18.0596C13.8019 17.8953 13.7069 17.8089 13.5687 17.5754C13.4391 17.342 13.3009 17.1086 13.1628 16.8752C12.9296 16.5034 12.8173 16.002 12.4286 15.7686V0H2.16788V39.9402L2.13333 40.1045C1.54602 40.5368 2.1247 40.7875 2.40108 41.1592C2.67746 41.5396 2.79838 42.0756 2.9193 42.5165C3.06613 43.0698 3.43752 43.1562 3.2475 43.7095C3.18704 43.8997 2.97112 44.0467 2.9193 44.2109C2.78975 44.6172 2.85884 44.4011 2.98839 44.7296C3.32524 45.5941 3.80027 46.5019 4.23212 47.3058C4.4135 47.643 4.7417 48.2049 5.10445 48.3865C5.25992 48.4643 5.47584 48.3778 5.69177 48.4902C5.87314 48.5853 5.96815 48.8447 6.14089 48.9484C6.73684 49.2769 6.81457 49.104 7.11687 49.7783C7.29824 50.1933 7.41916 50.6169 7.66964 51.0232C7.99784 51.5506 7.99784 51.5419 7.75601 52.1903C7.5919 52.6399 7.43644 53.1499 7.27234 53.5822C6.94413 54.4726 6.25317 55.3025 5.96815 56.2362C5.67449 57.1872 5.45857 58.2764 5.03536 59.1928C4.83671 59.6164 4.56032 59.9363 4.35304 60.3945C4.13711 60.8613 4.21485 61.0602 4.19757 61.5183C4.17166 62.3137 3.50661 63.1782 2.97976 63.792C2.46154 64.4058 1.84831 64.7775 1.52011 65.6161C1.35601 66.0397 1.25236 66.5584 1.08826 66.9907C0.932794 67.3884 0.578678 67.6996 0.449124 68.0886C0.371391 68.0886 0.276384 68.1145 0.190015 68.1145C0.120919 68.6592 0.319568 69.0223 0 69.515C0.768691 69.9646 -0.138191 71.3305 0.91552 71.3997L1.28691 71.3046C1.54602 71.0712 1.71012 71.4948 1.84831 71.6071C2.11606 71.8319 2.31471 71.4775 2.60837 71.5121C3.04022 71.5553 2.81565 71.9097 2.89339 72.1431C2.97112 72.3593 3.35115 72.2988 3.48934 72.5495C3.75708 73.0682 3.21296 73.4399 2.95385 73.7944C2.76383 74.0623 2.80702 74.1574 2.92793 74.4254C3.04022 74.6675 3.09204 74.9096 3.06613 75.1862C3.04885 75.3937 2.96248 75.5839 2.89339 75.7741C2.81565 76.0161 2.84157 76.2582 2.78111 76.5003C2.73792 76.6818 2.58246 76.7683 2.43563 76.8806C2.36653 76.9325 2.32335 76.9844 2.2888 77.0276H2.27153V77.0622C2.2197 77.1486 2.21107 77.2524 2.20243 77.408C2.18516 77.7019 2.20243 78.0045 2.27153 78.2984V103.309H63.9309V79.9583L64 68.1751C64 68.4949 63.6027 68.0972 63.4731 68.0108Z" fill="#212121"/>
</svg>
