<svg width="670" height="462" viewBox="0 0 670 462" fill="none" xmlns="http://www.w3.org/2000/svg">
<path d="M354.516 52.9315C448.68 127.964 464.19 265.125 389.157 359.289C314.125 453.454 85.6031 514.3 82.7994 393.93C79.9778 272.79 17.6418 159.266 48.1583 87.5726C95.3141 -23.2116 260.352 -22.101 354.516 52.9315Z" fill="#212121"/>
<path d="M71.7316 399.993C71.7316 427.004 55.6739 436.436 35.8658 436.436C16.0577 436.436 0 427.004 0 399.993C0 372.982 35.8658 338.62 35.8658 338.62C35.8658 338.62 71.7316 372.982 71.7316 399.993Z" fill="#B3B3B3"/>
<path d="M34.5594 432.304L34.9265 409.698L50.2136 381.731L34.9841 406.151L35.1493 395.987L45.685 375.753L35.1931 393.297V393.298L35.4901 375.016L46.7718 358.908L35.5366 372.141L35.7219 338.62L34.5559 382.996L34.6517 381.166L23.1819 363.608L34.4678 384.68L33.3989 405.097L33.3677 404.555L20.144 386.079L33.3275 406.469L33.1935 409.023L33.1699 409.061L33.181 409.27L30.4694 461.071H34.0923L34.5268 434.315L47.6776 413.974L34.5594 432.304Z" fill="#3F3D56"/>
<path d="M670 111.049H99.4934V419.206H670V111.049Z" fill="#F2F2F2"/>
<path d="M670 86.0637H99.4934V114.52H670V86.0637Z" fill="#F2F2F2"/>
<path d="M113.374 103.415C116.057 103.415 118.233 101.24 118.233 98.5566C118.233 95.8734 116.057 93.6982 113.374 93.6982C110.691 93.6982 108.516 95.8734 108.516 98.5566C108.516 101.24 110.691 103.415 113.374 103.415Z" fill="#212121"/>
<path d="M127.255 103.415C129.938 103.415 132.114 101.24 132.114 98.5566C132.114 95.8734 129.938 93.6982 127.255 93.6982C124.572 93.6982 122.397 95.8734 122.397 98.5566C122.397 101.24 124.572 103.415 127.255 103.415Z" fill="#212121"/>
<path d="M141.136 103.415C143.819 103.415 145.995 101.24 145.995 98.5566C145.995 95.8734 143.819 93.6982 141.136 93.6982C138.453 93.6982 136.278 95.8734 136.278 98.5566C136.278 101.24 138.453 103.415 141.136 103.415Z" fill="#212121"/>
<path opacity="0.1" d="M670 111.049H99.4934V114.52H670V111.049Z" fill="black"/>
<path opacity="0.3" d="M244.896 159.98H132.461V280.05H244.896V159.98Z" fill="#212121"/>
<path d="M252.531 151.651H140.095V271.721H252.531V151.651Z" fill="#212121"/>
<path opacity="0.3" d="M631.164 158.054H544.725V250.362H631.164V158.054Z" fill="#663399"/>
<path d="M637.033 151.651H550.594V243.959H637.033V151.651Z" fill="#663399"/>
<path opacity="0.3" d="M631.164 286.296H544.725V378.604H631.164V286.296Z" fill="#1BC797"/>
<path d="M637.033 279.893H550.594V372.202H637.033V279.893Z" fill="#1BC797"/>
<path d="M506.552 151.651H292.091V159.98H506.552V151.651Z" fill="#212121"/>
<path d="M506.552 175.943H292.091V184.271H506.552V175.943Z" fill="#212121"/>
<path d="M506.552 200.234H292.091V208.563H506.552V200.234Z" fill="#212121"/>
<path d="M506.552 224.526H292.091V232.855H506.552V224.526Z" fill="#212121"/>
<path d="M506.552 248.818H292.091V257.146H506.552V248.818Z" fill="#212121"/>
<path d="M506.552 273.109H292.091V281.438H506.552V273.109Z" fill="#212121"/>
<path d="M506.552 297.401H292.091V305.729H506.552V297.401Z" fill="#212121"/>
<path d="M506.552 321.693H292.091V330.021H506.552V321.693Z" fill="#212121"/>
<path d="M506.552 345.984H292.091V354.313H506.552V345.984Z" fill="#212121"/>
<path d="M506.552 370.276H292.091V378.604H506.552V370.276Z" fill="#212121"/>
<path d="M180.871 203.52C182.087 203.52 182.908 203.477 183.335 203.392V204.064C182.887 204.235 182.471 204.555 182.087 205.024C181.724 205.472 181.383 206.187 181.063 207.168L177.063 220C176.722 219.957 176.21 219.936 175.527 219.936C174.823 219.936 174.3 219.957 173.959 220L170.151 208.928L167.239 220C166.898 219.957 166.386 219.936 165.703 219.936C164.999 219.936 164.476 219.957 164.135 220L159.207 205.856C158.951 205.109 158.663 204.629 158.343 204.416C158.023 204.181 157.692 204.064 157.351 204.064V203.392C159.036 203.52 160.935 203.584 163.047 203.584C164.114 203.584 165.5 203.52 167.207 203.392V204.064C166.546 204.064 166.066 204.117 165.767 204.224C165.49 204.331 165.351 204.544 165.351 204.864C165.351 204.928 165.372 205.067 165.415 205.28L168.071 214.144L170.823 203.424H170.855C171.538 203.467 172.05 203.488 172.391 203.488C172.818 203.488 173.436 203.467 174.247 203.424L177.895 215.136L179.271 210.56C179.612 209.387 179.783 208.363 179.783 207.488C179.783 206.421 179.548 205.6 179.079 205.024C178.61 204.448 177.98 204.128 177.191 204.064V203.392C177.98 203.477 179.207 203.52 180.871 203.52ZM206.402 203.52C207.618 203.52 208.44 203.477 208.866 203.392V204.064C208.418 204.235 208.002 204.555 207.618 205.024C207.256 205.472 206.914 206.187 206.594 207.168L202.594 220C202.253 219.957 201.741 219.936 201.058 219.936C200.354 219.936 199.832 219.957 199.49 220L195.682 208.928L192.77 220C192.429 219.957 191.917 219.936 191.234 219.936C190.53 219.936 190.008 219.957 189.666 220L184.738 205.856C184.482 205.109 184.194 204.629 183.874 204.416C183.554 204.181 183.224 204.064 182.882 204.064V203.392C184.568 203.52 186.466 203.584 188.578 203.584C189.645 203.584 191.032 203.52 192.738 203.392V204.064C192.077 204.064 191.597 204.117 191.298 204.224C191.021 204.331 190.882 204.544 190.882 204.864C190.882 204.928 190.904 205.067 190.946 205.28L193.602 214.144L196.354 203.424H196.386C197.069 203.467 197.581 203.488 197.922 203.488C198.349 203.488 198.968 203.467 199.778 203.424L203.426 215.136L204.802 210.56C205.144 209.387 205.314 208.363 205.314 207.488C205.314 206.421 205.08 205.6 204.61 205.024C204.141 204.448 203.512 204.128 202.722 204.064V203.392C203.512 203.477 204.738 203.52 206.402 203.52ZM231.934 203.52C233.15 203.52 233.971 203.477 234.398 203.392V204.064C233.95 204.235 233.534 204.555 233.15 205.024C232.787 205.472 232.446 206.187 232.126 207.168L228.126 220C227.784 219.957 227.272 219.936 226.59 219.936C225.886 219.936 225.363 219.957 225.022 220L221.214 208.928L218.302 220C217.96 219.957 217.448 219.936 216.766 219.936C216.062 219.936 215.539 219.957 215.198 220L210.27 205.856C210.014 205.109 209.726 204.629 209.406 204.416C209.086 204.181 208.755 204.064 208.414 204.064V203.392C210.099 203.52 211.998 203.584 214.11 203.584C215.176 203.584 216.563 203.52 218.27 203.392V204.064C217.608 204.064 217.128 204.117 216.83 204.224C216.552 204.331 216.414 204.544 216.414 204.864C216.414 204.928 216.435 205.067 216.478 205.28L219.134 214.144L221.886 203.424H221.918C222.6 203.467 223.112 203.488 223.454 203.488C223.88 203.488 224.499 203.467 225.31 203.424L228.958 215.136L230.334 210.56C230.675 209.387 230.846 208.363 230.846 207.488C230.846 206.421 230.611 205.6 230.142 205.024C229.672 204.448 229.043 204.128 228.254 204.064V203.392C229.043 203.477 230.27 203.52 231.934 203.52Z" fill="white"/>
<path d="M626.759 304.552L623.241 301.034L611.497 312.716V294H606.472V312.716L594.727 301.034L591.21 304.552L606.472 319.876V326.911L594.727 315.229L581.287 301.725V294H576.262V301.725L561 317.05L564.517 320.567L576.262 308.885V315.92L561 331.244L564.517 334.762L576.262 323.079V358H581.287V323.079L593.031 334.762L596.549 331.244L581.287 315.92V308.885L591.21 318.746L592.215 319.751L593.031 320.567L606.472 334.071V358H611.497V334.071L626.759 318.746L623.241 315.229L611.497 326.911V319.876L626.759 304.552Z" fill="white"/>
<path d="M594 166C576.4 166 562 180.4 562 198C562 215.6 576.4 230 594 230C611.6 230 626 215.6 626 198C626 180.4 611.6 166 594 166ZM576.171 215.829C571.371 211.029 568.857 204.629 568.857 198.457L593.771 223.143C587.371 222.914 580.971 220.629 576.171 215.829ZM599.486 222.457L569.543 192.514C572.057 181.314 582.114 172.857 594 172.857C602.457 172.857 609.771 176.971 614.343 183.143L610.914 186.114C607.029 180.857 600.857 177.429 594 177.429C585.086 177.429 577.543 183.143 574.571 191.143L600.857 217.429C607.486 215.143 612.514 209.429 614.114 202.571H603.143V198H619.143C619.143 209.886 610.686 219.943 599.486 222.457Z" fill="white"/>
</svg>
