<svg width="631" height="461" viewBox="0 0 631 461" fill="none" xmlns="http://www.w3.org/2000/svg">
<path d="M315.516 52.9315C409.68 127.964 425.19 265.125 350.157 359.289C275.125 453.454 46.6031 514.3 43.7994 393.93C40.9778 272.79 -21.3582 159.266 9.15835 87.5726C56.3141 -23.2116 221.352 -22.101 315.516 52.9315Z" fill="url(#paint0_linear)"/>
<path d="M631 111.049H60.4934V419.206H631V111.049Z" fill="#F2F2F2"/>
<path d="M631 86.0637H60.4934V114.52H631V86.0637Z" fill="#F2F2F2"/>
<path d="M74.3743 103.415C77.0575 103.415 79.2326 101.24 79.2326 98.5566C79.2326 95.8734 77.0575 93.6982 74.3743 93.6982C71.6911 93.6982 69.516 95.8734 69.516 98.5566C69.516 101.24 71.6911 103.415 74.3743 103.415Z" fill="#212121"/>
<path d="M88.2553 103.415C90.9385 103.415 93.1136 101.24 93.1136 98.5566C93.1136 95.8734 90.9385 93.6982 88.2553 93.6982C85.5721 93.6982 83.397 95.8734 83.397 98.5566C83.397 101.24 85.5721 103.415 88.2553 103.415Z" fill="#212121"/>
<path d="M102.136 103.415C104.819 103.415 106.995 101.24 106.995 98.5566C106.995 95.8734 104.819 93.6982 102.136 93.6982C99.4531 93.6982 97.278 95.8734 97.278 98.5566C97.278 101.24 99.4531 103.415 102.136 103.415Z" fill="#212121"/>
<path opacity="0.1" d="M631 111.049H60.4934V114.52H631V111.049Z" fill="black"/>
<path opacity="0.3" d="M205.896 159.98H93.4608V280.05H205.896V159.98Z" fill="#888888"/>
<path d="M213.531 151.651H101.095V271.721H213.531V151.651Z" fill="#212121"/>
<path d="M178.821 231.2C179.435 232.711 180.096 233.844 180.804 234.6C181.56 235.308 182.292 235.686 183 235.733V237.15C179.6 237.008 175.303 236.937 170.108 236.937C164.725 236.937 160.758 237.008 158.208 237.15V235.733C160.003 235.639 161.278 235.426 162.033 235.096C162.789 234.718 163.167 234.081 163.167 233.183C163.167 232.333 162.883 231.2 162.317 229.783L158.138 218.167H143.829L142.625 221.354C141.067 225.368 140.288 228.437 140.288 230.562C140.288 232.499 140.831 233.821 141.917 234.529C143.003 235.237 144.608 235.639 146.733 235.733V237.15C143.192 237.008 140.099 236.937 137.454 236.937C135.235 236.937 133.417 237.008 132 237.15V235.733C133.181 235.544 134.29 234.812 135.329 233.537C136.368 232.262 137.431 230.232 138.517 227.446L154.242 187C155.753 187.094 157.004 187.142 157.996 187.142C158.94 187.142 160.168 187.094 161.679 187L178.821 231.2ZM157.642 216.75L151.196 199.042L144.396 216.75H157.642Z" fill="white"/>
<path opacity="0.3" d="M592.163 158.054H505.725V250.362H592.163V158.054Z" fill="#663399"/>
<path d="M598.033 151.651H511.594V243.959H598.033V151.651Z" fill="#663399"/>
<path opacity="0.3" d="M592.163 286.296H505.725V378.604H592.163V286.296Z" fill="black"/>
<path d="M598.033 279.893H511.594V372.202H598.033V279.893Z" fill="black"/>
<path d="M467.552 151.651H253.091V159.98H467.552V151.651Z" fill="#212121"/>
<path d="M467.552 175.943H253.091V184.271H467.552V175.943Z" fill="#212121"/>
<path d="M467.552 200.234H253.091V208.563H467.552V200.234Z" fill="#212121"/>
<path d="M467.552 224.526H253.091V232.855H467.552V224.526Z" fill="#212121"/>
<path d="M467.552 248.818H253.091V257.146H467.552V248.818Z" fill="#212121"/>
<path d="M467.552 273.109H253.091V281.438H467.552V273.109Z" fill="#212121"/>
<path d="M467.552 297.401H253.091V305.729H467.552V297.401Z" fill="#212121"/>
<path d="M467.552 321.693H253.091V330.021H467.552V321.693Z" fill="#212121"/>
<path d="M467.552 345.984H253.091V354.313H467.552V345.984Z" fill="#212121"/>
<path d="M467.552 370.276H253.091V378.604H467.552V370.276Z" fill="#212121"/>
<g clip-path="url(#clip0)">
<path d="M582.385 345.467H527.615C526.391 345.467 525.217 344.979 524.352 344.112C523.486 343.245 523 342.068 523 340.842V310.625C523 309.398 523.486 308.222 524.352 307.355C525.217 306.487 526.391 306 527.615 306H582.385C583.609 306 584.783 306.487 585.648 307.355C586.514 308.222 587 309.398 587 310.625V340.842C587 342.068 586.514 343.245 585.648 344.112C584.783 344.979 583.609 345.467 582.385 345.467ZM538.385 336.217V324.192L544.538 331.9L550.692 324.192V336.217H556.846V315.25H550.692L544.538 322.958L538.385 315.25H532.231V336.217H538.385ZM579.615 325.733H573.462V315.25H567.308V325.733H561.154L570.385 336.525L579.615 325.733Z" fill="white"/>
</g>
<path d="M555 166C537.4 166 523 180.4 523 198C523 215.6 537.4 230 555 230C572.6 230 587 215.6 587 198C587 180.4 572.6 166 555 166ZM537.171 215.829C532.371 211.029 529.857 204.629 529.857 198.457L554.771 223.143C548.371 222.914 541.971 220.629 537.171 215.829ZM560.486 222.457L530.543 192.514C533.057 181.314 543.114 172.857 555 172.857C563.457 172.857 570.771 176.971 575.343 183.143L571.914 186.114C568.029 180.857 561.857 177.429 555 177.429C546.086 177.429 538.543 183.143 535.571 191.143L561.857 217.429C568.486 215.143 573.514 209.429 575.114 202.571H564.143V198H580.143C580.143 209.886 571.686 219.943 560.486 222.457Z" fill="white"/>
<defs>
<linearGradient id="paint0_linear" x1="199.221" y1="0" x2="199.221" y2="460.861" gradientUnits="userSpaceOnUse">
<stop stop-color="#663399"/>
<stop offset="1" stop-color="white"/>
</linearGradient>
<clipPath id="clip0">
<rect width="64" height="39.4667" fill="white" transform="translate(523 306)"/>
</clipPath>
</defs>
</svg>
