<svg width="670" height="462" viewBox="0 0 670 462" fill="none" xmlns="http://www.w3.org/2000/svg">
<path d="M354.516 52.9315C448.68 127.964 464.19 265.125 389.157 359.289C314.125 453.454 85.6031 514.3 82.7994 393.93C79.9778 272.79 17.6418 159.266 48.1583 87.5726C95.3141 -23.2116 260.352 -22.101 354.516 52.9315Z" fill="url(#paint0_linear)"/>
<path d="M71.7316 399.993C71.7316 427.004 55.6739 436.436 35.8658 436.436C16.0577 436.436 0 427.004 0 399.993C0 372.982 35.8658 338.62 35.8658 338.62C35.8658 338.62 71.7316 372.982 71.7316 399.993Z" fill="#1BC797"/>
<path d="M34.5594 432.304L34.9265 409.698L50.2136 381.731L34.9841 406.151L35.1493 395.987L45.685 375.753L35.1931 393.297V393.298L35.4901 375.016L46.7718 358.908L35.5366 372.141L35.7219 338.62L34.5559 382.996L34.6517 381.166L23.1819 363.608L34.4678 384.68L33.3989 405.097L33.3677 404.555L20.144 386.079L33.3275 406.469L33.1935 409.023L33.1699 409.061L33.181 409.27L30.4694 461.071H34.0923L34.5268 434.315L47.6776 413.974L34.5594 432.304Z" fill="#3F3D56"/>
<path d="M670 111.049H99.4934V419.206H670V111.049Z" fill="#F2F2F2"/>
<path d="M670 86.0637H99.4934V114.52H670V86.0637Z" fill="#F2F2F2"/>
<path d="M113.374 103.415C116.057 103.415 118.233 101.24 118.233 98.5566C118.233 95.8734 116.057 93.6982 113.374 93.6982C110.691 93.6982 108.516 95.8734 108.516 98.5566C108.516 101.24 110.691 103.415 113.374 103.415Z" fill="#212121"/>
<path d="M127.255 103.415C129.938 103.415 132.114 101.24 132.114 98.5566C132.114 95.8734 129.938 93.6982 127.255 93.6982C124.572 93.6982 122.397 95.8734 122.397 98.5566C122.397 101.24 124.572 103.415 127.255 103.415Z" fill="#212121"/>
<path d="M141.136 103.415C143.819 103.415 145.995 101.24 145.995 98.5566C145.995 95.8734 143.819 93.6982 141.136 93.6982C138.453 93.6982 136.278 95.8734 136.278 98.5566C136.278 101.24 138.453 103.415 141.136 103.415Z" fill="#212121"/>
<path opacity="0.1" d="M670 111.049H99.4934V114.52H670V111.049Z" fill="black"/>
<path opacity="0.3" d="M244.896 159.98H132.461V280.05H244.896V159.98Z" fill="#888888"/>
<path d="M252.531 151.651H140.095V271.721H252.531V151.651Z" fill="#212121"/>
<path d="M217.821 231.2C218.435 232.711 219.096 233.844 219.804 234.6C220.56 235.308 221.292 235.686 222 235.733V237.15C218.6 237.008 214.303 236.937 209.108 236.937C203.725 236.937 199.758 237.008 197.208 237.15V235.733C199.003 235.639 200.278 235.426 201.033 235.096C201.789 234.718 202.167 234.081 202.167 233.183C202.167 232.333 201.883 231.2 201.317 229.783L197.138 218.167H182.829L181.625 221.354C180.067 225.368 179.288 228.437 179.288 230.562C179.288 232.499 179.831 233.821 180.917 234.529C182.003 235.237 183.608 235.639 185.733 235.733V237.15C182.192 237.008 179.099 236.937 176.454 236.937C174.235 236.937 172.417 237.008 171 237.15V235.733C172.181 235.544 173.29 234.812 174.329 233.537C175.368 232.262 176.431 230.232 177.517 227.446L193.242 187C194.753 187.094 196.004 187.142 196.996 187.142C197.94 187.142 199.168 187.094 200.679 187L217.821 231.2ZM196.642 216.75L190.196 199.042L183.396 216.75H196.642Z" fill="white"/>
<path opacity="0.3" d="M631.163 158.054H544.725V250.362H631.163V158.054Z" fill="#663399"/>
<path d="M637.033 151.651H550.594V243.959H637.033V151.651Z" fill="#663399"/>
<path opacity="0.3" d="M631.163 286.296H544.725V378.604H631.163V286.296Z" fill="#1BC797"/>
<path d="M637.033 279.893H550.594V372.202H637.033V279.893Z" fill="#1BC797"/>
<path d="M506.552 151.651H292.091V159.98H506.552V151.651Z" fill="#212121"/>
<path d="M506.552 175.943H292.091V184.271H506.552V175.943Z" fill="#212121"/>
<path d="M506.552 200.234H292.091V208.563H506.552V200.234Z" fill="#212121"/>
<path d="M506.552 224.526H292.091V232.855H506.552V224.526Z" fill="#212121"/>
<path d="M506.552 248.818H292.091V257.146H506.552V248.818Z" fill="#212121"/>
<path d="M506.552 273.109H292.091V281.438H506.552V273.109Z" fill="#212121"/>
<path d="M506.552 297.401H292.091V305.729H506.552V297.401Z" fill="#212121"/>
<path d="M506.552 321.693H292.091V330.021H506.552V321.693Z" fill="#212121"/>
<path d="M506.552 345.984H292.091V354.313H506.552V345.984Z" fill="#212121"/>
<path d="M506.552 370.276H292.091V378.604H506.552V370.276Z" fill="#212121"/>
<path d="M626.759 304.552L623.241 301.034L611.497 312.716V294H606.472V312.716L594.727 301.034L591.21 304.552L606.472 319.876V326.911L594.727 315.229L581.287 301.725V294H576.262V301.725L561 317.05L564.517 320.567L576.262 308.885V315.92L561 331.244L564.517 334.762L576.262 323.079V358H581.287V323.079L593.031 334.762L596.549 331.244L581.287 315.92V308.885L591.21 318.746L592.215 319.751L593.031 320.567L606.472 334.071V358H611.497V334.071L626.759 318.746L623.241 315.229L611.497 326.911V319.876L626.759 304.552Z" fill="white"/>
<path d="M594 166C576.4 166 562 180.4 562 198C562 215.6 576.4 230 594 230C611.6 230 626 215.6 626 198C626 180.4 611.6 166 594 166ZM576.171 215.829C571.371 211.029 568.857 204.629 568.857 198.457L593.771 223.143C587.371 222.914 580.971 220.629 576.171 215.829ZM599.486 222.457L569.543 192.514C572.057 181.314 582.114 172.857 594 172.857C602.457 172.857 609.771 176.971 614.343 183.143L610.914 186.114C607.029 180.857 600.857 177.429 594 177.429C585.086 177.429 577.543 183.143 574.571 191.143L600.857 217.429C607.486 215.143 612.514 209.429 614.114 202.571H603.143V198H619.143C619.143 209.886 610.686 219.943 599.486 222.457Z" fill="white"/>
<defs>
<linearGradient id="paint0_linear" x1="238.221" y1="0" x2="238.221" y2="460.861" gradientUnits="userSpaceOnUse">
<stop stop-color="#663399"/>
<stop offset="1" stop-color="#1BC797"/>
</linearGradient>
</defs>
</svg>
