<svg width="670" height="462" viewBox="0 0 670 462" fill="none" xmlns="http://www.w3.org/2000/svg">
<path d="M354.516 52.9315C448.68 127.964 464.19 265.125 389.157 359.289C314.125 453.454 85.6031 514.3 82.7994 393.93C79.9778 272.79 17.6418 159.266 48.1583 87.5726C95.3141 -23.2116 260.352 -22.101 354.516 52.9315Z" fill="#212121"/>
<path d="M71.7316 399.993C71.7316 427.004 55.6739 436.436 35.8658 436.436C16.0577 436.436 0 427.004 0 399.993C0 372.982 35.8658 338.62 35.8658 338.62C35.8658 338.62 71.7316 372.982 71.7316 399.993Z" fill="#B3B3B3"/>
<path d="M34.5593 432.304L34.9265 409.698L50.2136 381.731L34.9841 406.151L35.1493 395.987L45.6849 375.753L35.193 393.297V393.298L35.49 375.016L46.7718 358.908L35.5366 372.141L35.7219 338.62L34.5559 382.996L34.6516 381.166L23.1818 363.608L34.4677 384.68L33.3989 405.097L33.3677 404.555L20.144 386.079L33.3274 406.469L33.1934 409.023L33.1699 409.061L33.181 409.27L30.4693 461.071H34.0922L34.5267 434.315L47.6775 413.974L34.5593 432.304Z" fill="#3F3D56"/>
<path d="M670 111.049H99.4935V419.206H670V111.049Z" fill="#F2F2F2"/>
<path d="M670 86.0637H99.4935V114.52H670V86.0637Z" fill="#F2F2F2"/>
<path d="M113.374 103.415C116.058 103.415 118.233 101.24 118.233 98.5566C118.233 95.8734 116.058 93.6982 113.374 93.6982C110.691 93.6982 108.516 95.8734 108.516 98.5566C108.516 101.24 110.691 103.415 113.374 103.415Z" fill="#212121"/>
<path d="M127.255 103.415C129.939 103.415 132.114 101.24 132.114 98.5566C132.114 95.8734 129.939 93.6982 127.255 93.6982C124.572 93.6982 122.397 95.8734 122.397 98.5566C122.397 101.24 124.572 103.415 127.255 103.415Z" fill="#212121"/>
<path d="M141.136 103.415C143.82 103.415 145.995 101.24 145.995 98.5566C145.995 95.8734 143.82 93.6982 141.136 93.6982C138.453 93.6982 136.278 95.8734 136.278 98.5566C136.278 101.24 138.453 103.415 141.136 103.415Z" fill="#212121"/>
<path opacity="0.1" d="M670 111.049H99.4935V114.52H670V111.049Z" fill="black"/>
<path opacity="0.3" d="M244.896 159.98H132.461V280.05H244.896V159.98Z" fill="#212121"/>
<path d="M252.531 151.651H140.095V271.721H252.531V151.651Z" fill="#212121"/>
<path opacity="0.3" d="M631.164 158.054H544.725V250.362H631.164V158.054Z" fill="#212121"/>
<path d="M637.033 151.651H550.594V243.959H637.033V151.651Z" fill="#212121"/>
<path opacity="0.3" d="M631.164 286.296H544.725V378.604H631.164V286.296Z" fill="#212121"/>
<path d="M637.033 279.893H550.594V372.202H637.033V279.893Z" fill="#212121"/>
<path d="M506.552 151.651H292.091V159.98H506.552V151.651Z" fill="#212121"/>
<path d="M506.552 175.943H292.091V184.271H506.552V175.943Z" fill="#212121"/>
<path d="M506.552 200.234H292.091V208.563H506.552V200.234Z" fill="#212121"/>
<path d="M506.552 224.526H292.091V232.855H506.552V224.526Z" fill="#212121"/>
<path d="M506.552 248.818H292.091V257.146H506.552V248.818Z" fill="#212121"/>
<path d="M506.552 273.109H292.091V281.438H506.552V273.109Z" fill="#212121"/>
<path d="M506.552 297.401H292.091V305.73H506.552V297.401Z" fill="#212121"/>
<path d="M506.552 321.693H292.091V330.021H506.552V321.693Z" fill="#212121"/>
<path d="M506.552 345.984H292.091V354.313H506.552V345.984Z" fill="#212121"/>
<path d="M506.552 370.276H292.091V378.604H506.552V370.276Z" fill="#212121"/>
<path d="M180.871 203.52C182.087 203.52 182.908 203.477 183.335 203.392V204.064C182.887 204.235 182.471 204.555 182.087 205.024C181.724 205.472 181.383 206.187 181.063 207.168L177.063 220C176.722 219.957 176.21 219.936 175.527 219.936C174.823 219.936 174.3 219.957 173.959 220L170.151 208.928L167.239 220C166.898 219.957 166.386 219.936 165.703 219.936C164.999 219.936 164.476 219.957 164.135 220L159.207 205.856C158.951 205.109 158.663 204.629 158.343 204.416C158.023 204.181 157.692 204.064 157.351 204.064V203.392C159.036 203.52 160.935 203.584 163.047 203.584C164.114 203.584 165.5 203.52 167.207 203.392V204.064C166.546 204.064 166.066 204.117 165.767 204.224C165.49 204.331 165.351 204.544 165.351 204.864C165.351 204.928 165.372 205.067 165.415 205.28L168.071 214.144L170.823 203.424H170.855C171.538 203.467 172.05 203.488 172.391 203.488C172.818 203.488 173.436 203.467 174.247 203.424L177.895 215.136L179.271 210.56C179.612 209.387 179.783 208.363 179.783 207.488C179.783 206.421 179.548 205.6 179.079 205.024C178.61 204.448 177.98 204.128 177.191 204.064V203.392C177.98 203.477 179.207 203.52 180.871 203.52ZM206.402 203.52C207.618 203.52 208.44 203.477 208.866 203.392V204.064C208.418 204.235 208.002 204.555 207.618 205.024C207.256 205.472 206.914 206.187 206.594 207.168L202.594 220C202.253 219.957 201.741 219.936 201.058 219.936C200.354 219.936 199.832 219.957 199.49 220L195.682 208.928L192.77 220C192.429 219.957 191.917 219.936 191.234 219.936C190.53 219.936 190.008 219.957 189.666 220L184.738 205.856C184.482 205.109 184.194 204.629 183.874 204.416C183.554 204.181 183.224 204.064 182.882 204.064V203.392C184.568 203.52 186.466 203.584 188.578 203.584C189.645 203.584 191.032 203.52 192.738 203.392V204.064C192.077 204.064 191.597 204.117 191.298 204.224C191.021 204.331 190.882 204.544 190.882 204.864C190.882 204.928 190.904 205.067 190.946 205.28L193.602 214.144L196.354 203.424H196.386C197.069 203.467 197.581 203.488 197.922 203.488C198.349 203.488 198.968 203.467 199.778 203.424L203.426 215.136L204.802 210.56C205.144 209.387 205.314 208.363 205.314 207.488C205.314 206.421 205.08 205.6 204.61 205.024C204.141 204.448 203.512 204.128 202.722 204.064V203.392C203.512 203.477 204.738 203.52 206.402 203.52ZM231.934 203.52C233.15 203.52 233.971 203.477 234.398 203.392V204.064C233.95 204.235 233.534 204.555 233.15 205.024C232.787 205.472 232.446 206.187 232.126 207.168L228.126 220C227.784 219.957 227.272 219.936 226.59 219.936C225.886 219.936 225.363 219.957 225.022 220L221.214 208.928L218.302 220C217.96 219.957 217.448 219.936 216.766 219.936C216.062 219.936 215.539 219.957 215.198 220L210.27 205.856C210.014 205.109 209.726 204.629 209.406 204.416C209.086 204.181 208.755 204.064 208.414 204.064V203.392C210.099 203.52 211.998 203.584 214.11 203.584C215.176 203.584 216.563 203.52 218.27 203.392V204.064C217.608 204.064 217.128 204.117 216.83 204.224C216.552 204.331 216.414 204.544 216.414 204.864C216.414 204.928 216.435 205.067 216.478 205.28L219.134 214.144L221.886 203.424H221.918C222.6 203.467 223.112 203.488 223.454 203.488C223.88 203.488 224.499 203.467 225.31 203.424L228.958 215.136L230.334 210.56C230.675 209.387 230.846 208.363 230.846 207.488C230.846 206.421 230.611 205.6 230.142 205.024C229.672 204.448 229.043 204.128 228.254 204.064V203.392C229.043 203.477 230.27 203.52 231.934 203.52Z" fill="white"/>
<path d="M594 316.162C597.204 316.162 597.584 316.174 598.849 316.232C600.019 316.286 600.655 316.481 601.077 316.645C601.599 316.838 602.07 317.144 602.457 317.543C602.856 317.93 603.162 318.402 603.355 318.923C603.519 319.346 603.715 319.981 603.768 321.151C603.826 322.416 603.838 322.796 603.838 326C603.838 329.204 603.826 329.584 603.768 330.849C603.715 332.019 603.519 332.655 603.355 333.077C603.155 333.595 602.849 334.065 602.457 334.457C602.065 334.85 601.595 335.155 601.077 335.355C600.655 335.519 600.019 335.715 598.849 335.768C597.584 335.826 597.204 335.838 594 335.838C590.796 335.838 590.416 335.826 589.151 335.768C587.981 335.715 587.346 335.519 586.923 335.355C586.401 335.163 585.93 334.856 585.543 334.457C585.144 334.07 584.838 333.599 584.645 333.077C584.481 332.655 584.285 332.019 584.232 330.849C584.174 329.584 584.162 329.204 584.162 326C584.162 322.796 584.174 322.417 584.232 321.151C584.285 319.981 584.481 319.346 584.645 318.923C584.838 318.402 585.144 317.93 585.543 317.543C585.93 317.144 586.402 316.838 586.923 316.645C587.346 316.481 587.981 316.285 589.151 316.232C590.416 316.174 590.796 316.162 594 316.162L594 316.162ZM594 314C590.741 314 590.332 314.014 589.053 314.072C587.775 314.131 586.903 314.333 586.14 314.63C585.339 314.931 584.614 315.404 584.014 316.014C583.404 316.613 582.931 317.339 582.63 318.14C582.333 318.903 582.131 319.775 582.072 321.052C582.014 322.332 582 322.741 582 326C582 329.259 582.014 329.668 582.072 330.948C582.131 332.225 582.334 333.097 582.63 333.861C582.932 334.661 583.404 335.387 584.014 335.986C584.614 336.596 585.339 337.069 586.14 337.37C586.903 337.667 587.775 337.869 589.053 337.928C590.333 337.986 590.741 338 594 338C597.259 338 597.668 337.986 598.948 337.928C600.225 337.869 601.097 337.667 601.861 337.37C602.658 337.062 603.382 336.59 603.986 335.986C604.59 335.382 605.062 334.658 605.37 333.861C605.667 333.097 605.87 332.225 605.928 330.948C605.986 329.668 606 329.259 606 326C606 322.741 605.986 322.332 605.928 321.052C605.87 319.775 605.667 318.903 605.37 318.14C605.069 317.339 604.596 316.614 603.986 316.014C603.387 315.404 602.661 314.931 601.861 314.63C601.097 314.333 600.225 314.131 598.948 314.072C597.668 314.014 597.259 314 594 314H594Z" fill="white"/>
<path d="M594 319.838C592.781 319.838 591.59 320.199 590.577 320.876C589.563 321.554 588.773 322.516 588.307 323.642C587.841 324.768 587.719 326.007 587.956 327.202C588.194 328.398 588.781 329.496 589.643 330.357C590.505 331.219 591.603 331.806 592.798 332.044C593.993 332.282 595.232 332.16 596.358 331.693C597.484 331.227 598.447 330.437 599.124 329.424C599.801 328.41 600.162 327.219 600.162 326C600.162 324.366 599.513 322.798 598.357 321.643C597.202 320.487 595.634 319.838 594 319.838ZM594 330C593.209 330 592.436 329.765 591.778 329.326C591.12 328.886 590.607 328.262 590.305 327.531C590.002 326.8 589.923 325.996 590.077 325.22C590.231 324.444 590.612 323.731 591.172 323.172C591.731 322.612 592.444 322.231 593.22 322.077C593.996 321.923 594.8 322.002 595.531 322.305C596.262 322.607 596.886 323.12 597.326 323.778C597.765 324.436 598 325.209 598 326C598 327.061 597.579 328.078 596.828 328.829C596.078 329.579 595.061 330 594 330Z" fill="white"/>
<path d="M600.406 321.034C601.201 321.034 601.845 320.39 601.845 319.594C601.845 318.799 601.201 318.154 600.406 318.154C599.61 318.154 598.966 318.799 598.966 319.594C598.966 320.39 599.61 321.034 600.406 321.034Z" fill="white"/>
<path fill-rule="evenodd" clip-rule="evenodd" d="M603.39 190.514C604.418 190.791 605.229 191.601 605.506 192.629C606.02 194.507 606 198.422 606 198.422C606 198.422 606 202.316 605.506 204.194C605.229 205.222 604.418 206.033 603.39 206.31C601.512 206.804 594 206.804 594 206.804C594 206.804 586.507 206.804 584.61 206.29C583.582 206.013 582.771 205.203 582.494 204.175C582 202.316 582 198.402 582 198.402C582 198.402 582 194.507 582.494 192.629C582.771 191.601 583.601 190.771 584.61 190.494C586.488 190 594 190 594 190C594 190 601.512 190 603.39 190.514ZM591.608 194.804L597.855 198.402L591.608 202V194.804Z" fill="white"/>
</svg>
