<svg width="24" height="24" viewBox="0 0 24 24" fill="none" xmlns="http://www.w3.org/2000/svg">
<path fill-rule="evenodd" clip-rule="evenodd" d="M11.9989 -7.18295e-06C5.37328 -7.18295e-06 0 5.37256 0 12.0004C0 17.3015 3.43804 21.7996 8.20651 23.3871C8.8069 23.4969 9.02569 23.1263 9.02569 22.8081C9.02569 22.523 9.01538 21.7686 9.00949 20.7675C5.67163 21.4924 4.96737 19.1586 4.96737 19.1586C4.4215 17.7722 3.63474 17.4031 3.63474 17.4031C2.5452 16.6591 3.71725 16.6738 3.71725 16.6738C4.9217 16.7585 5.55524 17.9107 5.55524 17.9107C6.62562 19.7443 8.36416 19.2146 9.0478 18.9074C9.15682 18.1324 9.46696 17.6035 9.80951 17.3037C7.14497 17.0002 4.34342 15.971 4.34342 11.3727C4.34342 10.0622 4.8112 8.99183 5.57882 8.15276C5.45505 7.84925 5.04325 6.6293 5.69668 4.97694C5.69668 4.97694 6.7037 4.65428 8.99622 6.20644C9.95316 5.94051 10.9801 5.80791 12.0004 5.80275C13.0199 5.80791 14.0461 5.94051 15.0045 6.20644C17.2956 4.65428 18.3011 4.97694 18.3011 4.97694C18.956 6.6293 18.5442 7.84925 18.4212 8.15276C19.1903 8.99183 19.6544 10.0622 19.6544 11.3727C19.6544 15.9828 16.8484 16.9972 14.1758 17.2941C14.606 17.6646 14.9898 18.3969 14.9898 19.5166C14.9898 21.1204 14.975 22.4147 14.975 22.8081C14.975 23.1293 15.1916 23.5028 15.8001 23.3856C20.5649 21.7951 24 17.3007 24 12.0004C24 5.37256 18.6267 -7.18295e-06 11.9989 -7.18295e-06" fill="white"/>
</svg>
