<svg width="24" height="24" viewBox="0 0 24 24" fill="none" xmlns="http://www.w3.org/2000/svg">
<g clip-path="url(#clip0)">
<path d="M12 2.16221C15.2042 2.16221 15.5837 2.17445 16.8492 2.23218C18.0192 2.28558 18.6545 2.48102 19.0774 2.64536C19.5986 2.83773 20.0701 3.14447 20.4572 3.54302C20.8557 3.9301 21.1625 4.40158 21.3548 4.92279C21.5192 5.34564 21.7147 5.98103 21.768 7.15102C21.8257 8.41642 21.838 8.79592 21.838 12.0002C21.838 15.2044 21.8257 15.5838 21.768 16.8493C21.7146 18.0193 21.5191 18.6546 21.3548 19.0775C21.1552 19.5951 20.8494 20.0651 20.4572 20.4573C20.0649 20.8496 19.5949 21.1553 19.0774 21.355C18.6546 21.5193 18.0192 21.7148 16.8492 21.7682C15.584 21.8259 15.2045 21.8381 12 21.8381C8.79554 21.8381 8.41618 21.8259 7.15088 21.7682C5.98089 21.7148 5.34554 21.5193 4.92265 21.355C4.40143 21.1626 3.92995 20.8559 3.54288 20.4573C3.14433 20.0702 2.83759 19.5988 2.64522 19.0775C2.48088 18.6547 2.28539 18.0193 2.23204 16.8493C2.17431 15.584 2.16206 15.2044 2.16206 12.0002C2.16206 8.79592 2.17431 8.41651 2.23204 7.15102C2.28544 5.98103 2.48088 5.34569 2.64522 4.92279C2.83761 4.40155 3.14438 3.93005 3.54297 3.54297C3.93005 3.14442 4.40153 2.83768 4.92274 2.64531C5.34559 2.48097 5.98098 2.28548 7.15097 2.23213C8.41637 2.1744 8.79587 2.16216 12.0001 2.16216L12 2.16221ZM12.0001 0C8.74109 0 8.3323 0.0138139 7.05256 0.0722132C5.77525 0.130517 4.90298 0.333343 4.13969 0.630008C3.33899 0.931324 2.61365 1.40367 2.01425 2.01411C1.40368 2.61347 0.931197 3.33881 0.62977 4.13954C0.333343 4.90288 0.130517 5.77516 0.0724514 7.05246C0.0138139 8.3322 0 8.741 0 12C0 15.2591 0.0138139 15.6678 0.0724514 16.9476C0.130756 18.2249 0.333581 19.0972 0.630246 19.8605C0.931563 20.6612 1.40391 21.3865 2.01435 21.9859C2.61374 22.5963 3.33908 23.0687 4.13978 23.37C4.90312 23.6667 5.77539 23.8695 7.05265 23.9278C8.33258 23.9862 8.74123 24 12.0002 24C15.2592 24 15.668 23.9862 16.9478 23.9278C18.2251 23.8695 19.0974 23.6667 19.8606 23.37C20.6578 23.0617 21.3817 22.5903 21.9861 21.9859C22.5904 21.3815 23.0619 20.6576 23.3702 19.8605C23.6668 19.0971 23.8697 18.2248 23.928 16.9476C23.9864 15.6677 24.0002 15.259 24.0002 12C24.0002 8.74104 23.9864 8.3322 23.928 7.05246C23.8697 5.77516 23.6668 4.90288 23.3702 4.13959C23.0689 3.33889 22.5965 2.61355 21.9861 2.01416C21.3867 1.4036 20.6613 0.93115 19.8605 0.62977C19.0972 0.333343 18.2249 0.130517 16.9476 0.0724514C15.6678 0.0138139 15.2591 0 12 0H12.0001Z" fill="white"/>
<path d="M12.0001 5.83789C10.7813 5.83789 9.58992 6.1993 8.57655 6.87641C7.56318 7.55351 6.77336 8.51592 6.30696 9.64191C5.84056 10.7679 5.71853 12.0069 5.9563 13.2023C6.19407 14.3976 6.78096 15.4956 7.64275 16.3574C8.50455 17.2192 9.60255 17.8061 10.7979 18.0439C11.9932 18.2816 13.2322 18.1596 14.3582 17.6932C15.4842 17.2268 16.4466 16.437 17.1237 15.4236C17.8009 14.4102 18.1623 13.2188 18.1623 12.0001C18.1623 10.3658 17.513 8.79839 16.3574 7.64275C15.2018 6.48712 13.6344 5.83789 12.0001 5.83789ZM12.0001 16C11.209 16 10.4356 15.7654 9.77782 15.3259C9.12003 14.8864 8.60736 14.2617 8.30461 13.5308C8.00187 12.7999 7.92267 11.9956 8.07701 11.2197C8.23136 10.4438 8.61232 9.73105 9.17173 9.17165C9.73114 8.61224 10.4439 8.23129 11.2198 8.07695C11.9957 7.92262 12.8 8.00183 13.5309 8.30458C14.2618 8.60733 14.8865 9.12002 15.326 9.77781C15.7655 10.4356 16.0001 11.209 16.0001 12.0001C16.0001 13.0609 15.5787 14.0783 14.8285 14.8285C14.0784 15.5786 13.0609 16 12.0001 16Z" fill="white"/>
<path d="M18.4056 7.03437C19.2008 7.03437 19.8455 6.38968 19.8455 5.5944C19.8455 4.79912 19.2008 4.15442 18.4056 4.15442C17.6103 4.15442 16.9656 4.79912 16.9656 5.5944C16.9656 6.38968 17.6103 7.03437 18.4056 7.03437Z" fill="white"/>
</g>
<defs>
<clipPath id="clip0">
<rect width="24" height="24" fill="white"/>
</clipPath>
</defs>
</svg>
