<svg width="24" height="17" viewBox="0 0 24 17" fill="none" xmlns="http://www.w3.org/2000/svg">
<path fill-rule="evenodd" clip-rule="evenodd" d="M21.3904 0.514001C22.4184 0.790771 23.2289 1.60131 23.5057 2.62931C24.0197 4.50739 23.9999 8.42171 23.9999 8.42171C23.9999 8.42171 23.9999 12.3163 23.5057 14.1943C23.2289 15.2223 22.4184 16.0329 21.3904 16.3097C19.5123 16.8039 11.9999 16.8039 11.9999 16.8039C11.9999 16.8039 4.50739 16.8039 2.60954 16.2899C1.58154 16.0131 0.771002 15.2026 0.494232 14.1746C0 12.3163 0 8.40194 0 8.40194C0 8.40194 0 4.50739 0.494232 2.62931C0.771002 1.60131 1.60131 0.771002 2.60954 0.494232C4.48763 0 11.9999 0 11.9999 0C11.9999 0 19.5123 0 21.3904 0.514001ZM9.60787 4.80391L15.855 8.40192L9.60787 11.9999V4.80391Z" fill="white"/>
</svg>
